<?xml version="1.0" encoding="UTF-8" standalone="no"?>
<!-- Created with Inkscape (http://www.inkscape.org/) -->

<svg
   width="252.11105"
   height="219.28247"
   viewBox="0 0 66.704384 58.018488"
   version="1.1"
   id="svg1"
   sodipodi:docname="LogoForClear.svg"
   xmlns:inkscape="http://www.inkscape.org/namespaces/inkscape"
   xmlns:sodipodi="http://sodipodi.sourceforge.net/DTD/sodipodi-0.dtd"
   xmlns="http://www.w3.org/2000/svg"
   xmlns:svg="http://www.w3.org/2000/svg">
  <sodipodi:namedview
     id="namedview1"
     pagecolor="#ffffff"
     bordercolor="#000000"
     borderopacity="0.25"
     inkscape:showpageshadow="2"
     inkscape:pageopacity="0.0"
     inkscape:pagecheckerboard="0"
     inkscape:deskcolor="#d1d1d1" />
  <defs
     id="defs1" />
  <g
     id="layer1"
     transform="translate(-27.592916,-10.809612)">
    <g
       id="g22">
      <path
         style="fill:#f26140;fill-opacity:1;stroke:#f26140;stroke-width:0.264583;stroke-opacity:1"
         d="m 45.430537,44.958727 48.557067,-33.772572 -6.09756,13.89598 -31.094291,19.87609 z"
         id="path8" />
      <path
         style="fill:#f26140;fill-opacity:1;stroke:#f26140;stroke-width:0.264583;stroke-opacity:1;paint-order:fill markers stroke"
         d="m 44.456658,45.640023 -7.374604,5.251668 -0.496208,5.16423 -4.148496,3.14004 -0.07523,-4.47667 -4.266321,-0.0732 2.266584,1.34102 0.112256,3.931875 0.04166,4.045153 -2.433518,0.02997 2.193232,1.246621 2.239893,1.199955 0.02351,-5.170902 9.945804,-4.901554 z"
         id="path11" />
      <path
         style="fill:#f26140;fill-opacity:1;stroke:#f26140;stroke-width:0.264583;stroke-opacity:1"
         d="m 37.164891,50.032491 7.012663,-5.001706 -4.526492,-3.313724 -4.192626,-0.0951 -4.072354,1.54313 -2.805446,3.22282 0.173781,2.52923 0.612241,-1.05115 3.856596,-0.0892 3.988395,-0.0174 z"
         id="path12" />
      <path
         style="fill:#ffffff;stroke:#f26140;stroke-width:0.264583;stroke-opacity:1"
         d="m 31.502893,44.458501 4.287676,-1.61153 -1.566824,1.21845 -0.03874,0.72855 -1.212189,0.89611 z"
         id="path10" />
      <path
         style="fill:#f26140;fill-opacity:1;stroke:#f26140;stroke-width:0.264583;stroke-opacity:1"
         d="m 45.068898,45.549975 -1.861184,10.456122 c 2.528279,-1.733511 3.269891,-2.199141 5.767336,-3.730898 6.731981,5.51504 13.521217,10.791728 20.019397,16.277848 l 11.64131,0.13806 -30.162506,-23.149148 z"
         id="path13" />
      <path
         style="fill:#f26140;fill-opacity:1;stroke:#f26140;stroke-width:0.264583;stroke-linejoin:miter;stroke-dasharray:none;stroke-opacity:1;paint-order:fill markers stroke"
         d="m 44.732203,44.585179 -4.962078,-3.528589 -2.315636,-0.03676 0.07352,-4.15344 z"
         id="path19" />
      <path
         style="fill:#f26140;fill-opacity:1;stroke:#f26140;stroke-width:0.264583;stroke-linejoin:miter;stroke-dasharray:none;stroke-opacity:1;paint-order:fill markers stroke"
         d="M 57.906845,45.119516 87.224134,26.614277 86.600363,28.381633 59.466275,45.223479 Z"
         id="path21" />
      <path
         style="fill:#f26442;fill-opacity:1;stroke:#f26140;stroke-width:0.264583;stroke-linejoin:miter;stroke-dasharray:none;stroke-opacity:1;paint-order:fill markers stroke"
         d="m 42.379811,57.045504 -2.793466,1.359977 2.536174,0.882148 z"
         id="path22" />
    </g>
  </g>
</svg>
