<?xml version="1.0" encoding="UTF-8" standalone="no"?>
<!-- Created with Inkscape (http://www.inkscape.org/) -->

<svg
   width="249.08884"
   height="217.34155"
   viewBox="0 0 65.904756 57.504953"
   version="1.1"
   id="svg1"
   xmlns="http://www.w3.org/2000/svg"
   xmlns:svg="http://www.w3.org/2000/svg">
  <defs
     id="defs1" />
  <g
     id="layer1"
     transform="translate(-118.08137,-8.1866894)">
    <g
       id="g1">
      <path
         style="fill:#ffffff;stroke:none;stroke-width:0.264583;stroke-opacity:1"
         d="M 135.42906,41.959262 183.98613,8.1866895 177.88857,22.08267 146.79428,41.95876 Z"
         id="path8-39" />
      <path
         style="fill:#ffffff;stroke:none;stroke-width:0.264583;stroke-opacity:1;paint-order:fill markers stroke"
         d="m 134.45518,42.640557 -7.3746,5.251669 -0.49621,5.164229 -4.1485,3.14004 -0.0752,-4.47667 -4.26633,-0.0732 2.26659,1.34102 0.11225,3.931875 0.0417,4.045153 -2.43351,0.02997 2.19323,1.246621 2.23989,1.199956 0.0235,-5.170902 9.9458,-4.901554 z"
         id="path11-5" />
      <path
         style="fill:#ffffff;stroke:none;stroke-width:0.264583;stroke-opacity:1"
         d="m 127.16342,47.033025 7.01266,-5.001705 -4.52649,-3.313724 -4.19263,-0.0951 -4.07235,1.54313 -2.80545,3.22282 0.17378,2.52923 0.61224,-1.05115 3.8566,-0.0892 3.98839,-0.0174 z"
         id="path12-5" />
      <path
         style="fill:#000000;fill-opacity:1;stroke:none;stroke-width:0.264583;stroke-opacity:1"
         d="m 121.50142,41.459035 4.28767,-1.61153 -1.56682,1.21845 -0.0387,0.72855 -1.21219,0.89611 z"
         id="path10-7" />
      <path
         style="fill:#ffffff;stroke:none;stroke-width:0.264583;stroke-opacity:1"
         d="m 135.06742,42.55051 -1.86118,10.456122 c 2.52828,-1.733511 3.26989,-2.199141 5.76733,-3.730899 6.73199,5.51504 13.52122,10.791728 20.0194,16.277848 l 11.64131,0.13806 -30.1625,-23.149148 z"
         id="path13-6" />
      <path
         style="fill:#ffffff;stroke:none;stroke-width:0.264583;stroke-linejoin:miter;stroke-dasharray:none;stroke-opacity:1;paint-order:fill markers stroke"
         d="m 134.73073,41.585713 -4.96208,-3.528589 -2.31564,-0.03676 0.0735,-4.15344 z"
         id="path19-6" />
      <path
         style="fill:#ffffff;stroke:none;stroke-width:0.264583;stroke-linejoin:miter;stroke-dasharray:none;stroke-opacity:1;paint-order:fill markers stroke"
         d="m 147.90537,42.12005 29.31729,-18.505238 -0.62377,1.767356 -27.13409,16.841845 z"
         id="path21-6" />
      <path
         style="fill:#ffffff;stroke:none;stroke-width:0.264583;stroke-linejoin:miter;stroke-dasharray:none;stroke-opacity:1;paint-order:fill markers stroke"
         d="m 132.37834,54.046039 -2.79347,1.359977 2.53617,0.882148 z"
         id="path22-3" />
    </g>
  </g>
</svg>
